<svg xmlns="http://www.w3.org/2000/svg" xmlns:xlink="http://www.w3.org/1999/xlink"><symbol id="icon-facebook" viewBox="0 0 512 512"><path d="M320 85.333h64c5.891 0 10.667-4.776 10.667-10.667v-64C394.667 4.776 389.891 0 384 0h-64c-64.772.071-117.263 52.561-117.333 117.333V192H128c-5.891 0-10.667 4.776-10.667 10.667v64c0 5.891 4.776 10.667 10.667 10.667h74.667v224c0 5.891 4.776 10.667 10.667 10.667h64c5.891 0 10.667-4.776 10.667-10.667v-224h74.667a10.666 10.666 0 0010.112-7.296l21.333-64c1.862-5.589-1.16-11.629-6.749-13.491a10.676 10.676 0 00-3.363-.547h-96v-74.667c-.001-17.673 14.326-32 31.999-32z" fill="#2196f3"/></symbol><symbol id="icon-pinterest" viewBox="0 0 511.977 511.977"><path d="M262.948 0C122.628 0 48.004 89.92 48.004 187.968c0 45.472 25.408 102.176 66.08 120.16 6.176 2.784 9.536 1.6 10.912-4.128 1.216-4.352 6.56-25.312 9.152-35.2.8-3.168.384-5.92-2.176-8.896-13.504-15.616-24.224-44.064-24.224-70.752 0-68.384 54.368-134.784 146.88-134.784 80 0 135.968 51.968 135.968 126.304 0 84-44.448 142.112-102.208 142.112-31.968 0-55.776-25.088-48.224-56.128 9.12-36.96 27.008-76.704 27.008-103.36 0-23.904-13.504-43.68-41.088-43.68-32.544 0-58.944 32.224-58.944 75.488 0 27.488 9.728 46.048 9.728 46.048S144.676 371.2 138.692 395.488c-10.112 41.12 1.376 107.712 2.368 113.44.608 3.168 4.16 4.16 6.144 1.568 3.168-4.16 42.08-59.68 52.992-99.808 3.968-14.624 20.256-73.92 20.256-73.92 10.72 19.36 41.664 35.584 74.624 35.584 98.048 0 168.896-86.176 168.896-193.12C463.62 76.704 375.876 0 262.948 0" fill="#d32f2f"/></symbol><symbol id="icon-twitter" viewBox="0 0 512 512"><path d="M512 97.248c-19.04 8.352-39.328 13.888-60.48 16.576 21.76-12.992 38.368-33.408 46.176-58.016-20.288 12.096-42.688 20.64-66.56 25.408C411.872 60.704 384.416 48 354.464 48c-58.112 0-104.896 47.168-104.896 104.992 0 8.32.704 16.32 2.432 23.936-87.264-4.256-164.48-46.08-216.352-109.792-9.056 15.712-14.368 33.696-14.368 53.056 0 36.352 18.72 68.576 46.624 87.232-16.864-.32-33.408-5.216-47.424-12.928v1.152c0 51.008 36.384 93.376 84.096 103.136-8.544 2.336-17.856 3.456-27.52 3.456-6.72 0-13.504-.384-19.872-1.792 13.6 41.568 52.192 72.128 98.08 73.12-35.712 27.936-81.056 44.768-130.144 44.768-8.608 0-16.864-.384-25.12-1.44C46.496 446.88 101.6 464 161.024 464c193.152 0 298.752-160 298.752-298.688 0-4.64-.16-9.12-.384-13.568 20.832-14.784 38.336-33.248 52.608-54.496z" fill="#03a9f4"/></symbol></svg>