<svg xmlns="http://www.w3.org/2000/svg" xmlns:xlink="http://www.w3.org/1999/xlink"><symbol id="icon-facebook" viewBox="0 0 512 512"><path d="M320 85.333h64c5.891 0 10.667-4.776 10.667-10.667v-64C394.667 4.776 389.891 0 384 0h-64c-64.772.071-117.263 52.561-117.333 117.333V192H128c-5.891 0-10.667 4.776-10.667 10.667v64c0 5.891 4.776 10.667 10.667 10.667h74.667v224c0 5.891 4.776 10.667 10.667 10.667h64c5.891 0 10.667-4.776 10.667-10.667v-224h74.667a10.666 10.666 0 0010.112-7.296l21.333-64c1.862-5.589-1.16-11.629-6.749-13.491a10.676 10.676 0 00-3.363-.547h-96v-74.667c-.001-17.673 14.326-32 31.999-32z" fill="#2196f3"/></symbol><symbol id="icon-pinterest" viewBox="0 0 112.198 112.198"><circle cx="56.099" cy="56.1" r="56.098" fill="#cb2027"/><path d="M60.627 75.122c-4.241-.328-6.023-2.431-9.349-4.45-1.828 9.591-4.062 18.785-10.679 23.588-2.045-14.496 2.998-25.384 5.34-36.941-3.992-6.72.48-20.246 8.9-16.913 10.363 4.098-8.972 24.987 4.008 27.596 13.551 2.724 19.083-23.513 10.679-32.047-12.142-12.321-35.343-.28-32.49 17.358.695 4.312 5.151 5.621 1.78 11.571-7.771-1.721-10.089-7.85-9.791-16.021.481-13.375 12.018-22.74 23.59-24.036 14.635-1.638 28.371 5.374 30.267 19.14 2.133 15.537-6.607 32.363-22.255 31.155z" fill="#f1f2f2"/></symbol><symbol id="icon-twitter" viewBox="0 0 512 512"><path d="M512 97.248c-19.04 8.352-39.328 13.888-60.48 16.576 21.76-12.992 38.368-33.408 46.176-58.016-20.288 12.096-42.688 20.64-66.56 25.408C411.872 60.704 384.416 48 354.464 48c-58.112 0-104.896 47.168-104.896 104.992 0 8.32.704 16.32 2.432 23.936-87.264-4.256-164.48-46.08-216.352-109.792-9.056 15.712-14.368 33.696-14.368 53.056 0 36.352 18.72 68.576 46.624 87.232-16.864-.32-33.408-5.216-47.424-12.928v1.152c0 51.008 36.384 93.376 84.096 103.136-8.544 2.336-17.856 3.456-27.52 3.456-6.72 0-13.504-.384-19.872-1.792 13.6 41.568 52.192 72.128 98.08 73.12-35.712 27.936-81.056 44.768-130.144 44.768-8.608 0-16.864-.384-25.12-1.44C46.496 446.88 101.6 464 161.024 464c193.152 0 298.752-160 298.752-298.688 0-4.64-.16-9.12-.384-13.568 20.832-14.784 38.336-33.248 52.608-54.496z" fill="#03a9f4"/></symbol></svg>