<?xml version="1.0" encoding="utf-8"?><svg viewBox="0 0 26 24" xmlns="http://www.w3.org/2000/svg" xmlns:xlink="http://www.w3.org/1999/xlink"><style>:root>svg{display:none}:root>svg:target{display:block}</style><svg viewBox="0 0 26 20" id="icon-email" xmlns="http://www.w3.org/2000/svg"><path d="M24.227 0H1.773C.768 0 0 .765 0 1.765v16.47C0 19.235.768 20 1.773 20h22.454C25.232 20 26 19.235 26 18.235V1.765C26 .765 25.232 0 24.227 0Zm0 17-4.668-4.647a.86.86 0 0 0-1.24 0 .85.85 0 0 0 0 1.235l4.667 4.647H3.014l4.668-4.647a.85.85 0 0 0 0-1.235.86.86 0 0 0-1.241 0L1.773 17V5.706l10.636 8a.956.956 0 0 0 .532.176.955.955 0 0 0 .532-.176l10.754-8V17Zm0-15.235V3.47l-11.286 8.352L1.773 3.471V1.765h22.454Z"/></svg><svg viewBox="0 0 11 20" id="icon-left-arrow" xmlns="http://www.w3.org/2000/svg"><path fill-rule="evenodd" clip-rule="evenodd" d="M9.717 0 11 1.32 2.567 10 11 18.68 9.717 20 0 10 9.717 0Z"/></svg><svg viewBox="0 0 12 12" id="icon-menu-close" xmlns="http://www.w3.org/2000/svg"><path fill-rule="evenodd" clip-rule="evenodd" d="M5.025 6 0 .975.975 0 6 5.025 11.025 0 12 .975 6.975 6 12 11.025l-.975.975L6 6.975.975 12 0 11.025 5.025 6Z"/></svg><svg viewBox="0 0 16 12" id="icon-menu-open" xmlns="http://www.w3.org/2000/svg"><path fill-rule="evenodd" clip-rule="evenodd" d="M0 0h16v1.5H0V0Zm0 5.25h16v1.5H0v-1.5Zm16 5.25H0V12h16v-1.5Z"/></svg><svg viewBox="0 0 22 24" id="icon-phone" xmlns="http://www.w3.org/2000/svg"><path d="M3.456 6.624c-.084-1.198.182-2.378.885-3.327.61-.86 1.404-1.33 2.362-1.605.806-.24 1.334.054 1.567.95.332 1.34.806 2.68.978 4.092.055.62-.347 1.5-.782 1.952-1.09 1.073-.863 1.854-.036 3.478.257.524.664 1.43 1.459 2.628.827 1.207 1.265 1.855 2.328 1.306 1.18-.594 2.041-.212 2.932.746.604.693 1.269 1.288 1.873 1.98.872 1.03.833 1.74.15 2.467-1.229 1.34-3.258 1.783-4.768.886-.833-.489-1.664-1.128-2.325-1.874-2.914-3.32-5.016-7.182-6.281-11.54a10.989 10.989 0 0 1-.342-2.139Z"/></svg></svg>